<svg version="1.1" id="Layer_1" xmlns="http://www.w3.org/2000/svg" xmlns:xlink="http://www.w3.org/1999/xlink" x="0px" y="0px"
	 width="100%" viewBox="0 0 1024 544" enable-background="new 0 0 1024 544" xml:space="preserve">
<path fill="#ffffff" opacity="1.000000" stroke="none" 
	d="
M228.670120,382.653748 
	C206.263306,405.942444 162.247971,405.073639 139.655334,387.898346 
	C131.237885,381.499268 125.979836,373.071564 123.253883,362.904419 
	C122.225235,359.067841 123.471687,357.552032 127.312790,357.762482 
	C128.974442,357.853455 130.665100,357.951355 132.308151,357.756256 
	C140.846054,356.742218 147.015060,358.320557 152.360535,366.847229 
	C159.758209,378.647339 179.067200,382.404694 194.698563,377.549561 
	C209.246719,373.030853 217.371613,362.427002 218.850998,346.619995 
	C219.488174,339.811798 219.999237,333.056885 219.142563,325.987030 
	C218.499603,326.273254 217.998352,326.346252 217.733734,326.635651 
	C200.790878,345.163574 179.837723,348.746918 156.997375,341.381897 
	C134.570709,334.150269 122.388962,317.377350 118.688683,294.484833 
	C115.525146,274.912994 117.937584,256.213409 129.866394,239.690659 
	C149.318039,212.747971 190.409363,208.895462 214.691940,231.593155 
	C215.900024,232.722366 217.086090,233.875137 218.886917,235.593918 
	C220.014618,231.420029 219.717896,227.667099 219.556427,224.021072 
	C219.389877,220.259705 220.963455,218.945877 224.530167,219.048904 
	C229.025711,219.178772 233.538635,219.250259 238.025024,219.002335 
	C242.534363,218.753143 244.242355,220.515366 244.186310,225.077362 
	C244.002106,240.073807 244.108643,255.073807 244.102859,270.072449 
	C244.094635,291.403870 244.246658,312.737091 244.007874,334.065948 
	C243.892563,344.366150 243.294144,354.662994 239.674149,364.548340 
	C237.224777,371.237030 233.645584,377.135040 228.670120,382.653748 
M215.320023,260.244690 
	C214.214111,258.389832 213.206024,256.467926 211.987366,254.690369 
	C198.078705,234.402817 169.148834,232.416168 152.948929,250.861908 
	C142.349533,262.930725 140.542938,277.325989 143.457642,292.562195 
	C146.206314,306.930359 158.730820,319.707306 172.429886,322.479095 
	C188.252609,325.680603 203.422028,319.786774 212.134018,306.642639 
	C221.752930,292.130188 221.921295,276.741730 215.320023,260.244690 
z"/>
<path fill="#ffffff" opacity="1.000000" stroke="none" 
	d="
M394.402100,298.000061 
	C394.405548,311.325317 394.287933,324.152344 394.481140,336.974701 
	C394.541992,341.011749 393.345703,342.749786 389.112244,342.476349 
	C384.633606,342.187012 380.115051,342.251617 375.627136,342.454224 
	C372.016571,342.617188 370.433014,341.344177 370.629120,337.596344 
	C370.842407,333.519531 370.677551,329.422882 370.677551,324.203156 
	C364.771698,330.247650 359.823822,335.352631 353.343689,338.691864 
	C318.655792,356.566742 275.655426,335.036560 268.735870,296.173920 
	C266.153168,281.668549 266.678925,267.341949 272.269989,253.488174 
	C287.898254,214.763580 337.465881,204.387283 367.303284,233.567230 
	C368.088837,234.335510 368.642853,235.495941 370.666901,235.544769 
	C370.666901,231.759598 370.847992,227.980301 370.614990,224.226730 
	C370.390747,220.614746 371.700928,218.991699 375.403137,219.100845 
	C380.062683,219.238205 384.731873,219.223892 389.392303,219.101501 
	C393.280151,218.999390 394.478882,220.738312 394.458710,224.546707 
	C394.329773,248.863907 394.397919,273.182159 394.402100,298.000061 
M295.652893,263.221802 
	C292.599335,272.003174 291.688416,280.857147 293.267334,290.166382 
	C298.164978,319.042114 329.615936,333.317413 353.021973,316.493469 
	C368.293365,305.516571 372.807922,289.640869 369.599030,271.419708 
	C366.582672,254.291565 352.699738,240.525635 336.476807,238.461456 
	C318.494232,236.173386 303.540649,245.050735 295.652893,263.221802 
z"/>
<path fill="#ffffff" opacity="1.000000" stroke="none" 
	d="
M756.759644,325.997009 
	C756.755920,292.333801 756.746826,259.169739 756.755371,226.005661 
	C756.757080,219.428055 757.210938,219.003555 763.879883,219.146820 
	C768.374939,219.243378 772.870544,219.537720 777.362488,219.479538 
	C780.222961,219.442490 781.256287,220.669586 781.192322,223.358017 
	C781.118896,226.442749 781.175354,229.530579 781.175354,234.016388 
	C788.412964,226.782700 795.365540,221.903717 803.825745,219.278458 
	C823.569824,213.151749 845.167297,218.775421 857.546997,233.768173 
	C864.961670,242.747955 867.954590,253.575180 868.148315,264.885406 
	C868.562134,289.043365 868.246826,313.213104 868.413330,337.376740 
	C868.441040,341.397095 866.951477,342.671143 863.133545,342.455963 
	C858.980591,342.221924 854.785767,342.165131 850.642456,342.475281 
	C846.136597,342.812561 844.526917,341.282013 844.580688,336.598358 
	C844.802734,317.269104 844.702759,297.935669 844.653320,278.604004 
	C844.638428,272.765198 844.005066,266.958557 842.621338,261.284485 
	C839.393799,248.049744 830.218750,239.580124 818.036987,238.401291 
	C803.159851,236.961609 791.156494,243.554962 785.431396,256.367981 
	C782.237915,263.514954 781.497986,271.173706 781.424866,278.835297 
	C781.240479,298.165466 781.222229,317.499603 781.420898,336.829224 
	C781.466553,341.274231 780.018372,342.751129 775.674072,342.469666 
	C770.861328,342.157837 766.009583,342.289093 761.181091,342.435333 
	C757.941895,342.533447 756.659424,341.156708 756.749695,337.993866 
	C756.859131,334.164337 756.765930,330.328979 756.759644,325.997009 
z"/>
<path fill="#ffffff" opacity="1.000000" stroke="none" 
	d="
M719.089966,327.088287 
	C690.234375,356.404877 638.253296,352.420074 615.857117,314.742371 
	C592.537598,275.511230 613.950195,223.428970 661.944702,215.915085 
	C698.152954,210.246429 730.260498,232.771805 736.738525,268.882446 
	C740.669067,290.792603 735.025330,310.484833 719.089966,327.088287 
M693.328552,324.885376 
	C715.163635,313.191132 725.512024,290.426819 719.363037,267.879456 
	C713.897949,247.839828 694.489380,230.095718 667.574768,232.015594 
	C638.379150,234.098206 616.950562,264.685242 625.002502,293.719849 
	C632.277588,319.953339 662.387329,338.973267 693.328552,324.885376 
z"/>
<path fill="#ffffff" opacity="1.000000" stroke="none" 
	d="
M576.986816,266.950928 
	C563.481689,285.324310 550.194336,303.415131 536.896057,321.520874 
	C538.723083,323.360046 540.660522,322.653442 542.370667,322.661438 
	C557.361450,322.731323 572.354309,322.827789 587.342834,322.632416 
	C591.658325,322.576172 593.169434,323.944275 593.160461,328.351105 
	C593.131775,342.426788 593.282043,342.407959 579.198975,342.413147 
	C556.379333,342.421539 533.559021,342.374573 510.740692,342.561401 
	C506.763367,342.593994 505.849701,341.213440 505.538452,337.419006 
	C504.791901,328.318115 507.438110,321.009796 513.089539,313.621216 
	C530.791443,290.478027 547.700989,266.728607 564.905579,243.205353 
	C565.580139,242.283020 566.132629,241.271362 566.780457,240.240128 
	C565.043396,238.738068 563.129700,239.379578 561.413269,239.372086 
	C544.923340,239.299973 528.430847,239.172440 511.944122,239.408081 
	C507.270782,239.474884 505.600525,237.840820 505.976959,233.344482 
	C506.212372,230.532333 506.178406,227.674744 505.992584,224.855515 
	C505.706573,220.516449 507.609924,219.007126 511.880005,219.046875 
	C527.869080,219.195755 543.860474,219.098495 559.850952,219.097488 
	C570.844421,219.096786 581.838501,219.168884 592.831055,219.069809 
	C596.698853,219.034943 598.134216,220.297180 598.500610,224.506897 
	C599.313843,233.850540 597.014709,241.598480 590.620300,248.648300 
	C585.612732,254.169052 581.638245,260.626862 576.986816,266.950928 
z"/>
<path fill="#ffffff" opacity="1.000000" stroke="none" 
	d="
M424.705658,241.000137 
	C424.712830,234.833862 424.812775,229.165512 424.689880,223.502029 
	C424.625000,220.513901 425.939636,219.193909 428.802490,219.182709 
	C434.134918,219.161835 439.467621,219.173508 444.799835,219.128006 
	C447.868652,219.101822 449.396851,220.379883 449.287476,223.629364 
	C449.148529,227.756577 449.253845,231.891983 449.253845,237.000320 
	C451.702911,234.219421 453.433624,232.069962 455.353790,230.105698 
	C463.702301,221.565430 474.214630,217.960190 485.819702,216.816864 
	C489.484436,216.455826 491.064484,217.976425 491.009827,221.597809 
	C490.934387,226.596344 490.880005,231.599823 491.020477,236.595444 
	C491.124664,240.301285 489.475739,241.413651 485.895996,241.469925 
	C476.450928,241.618408 467.301514,242.891174 459.888092,249.742661 
	C451.910339,257.115723 449.575256,266.744263 449.404999,276.912262 
	C449.072998,296.739319 449.136932,316.576538 449.337036,336.406525 
	C449.385529,341.214233 447.953827,343.007568 443.071930,342.539978 
	C438.777130,342.128662 434.400940,342.220673 430.084442,342.482361 
	C425.910065,342.735443 424.601288,341.076874 424.645172,336.994629 
	C424.811737,321.497284 424.698364,305.997009 424.697021,290.497803 
	C424.695587,274.165222 424.702545,257.832672 424.705658,241.000137 
z"/>
<path fill="#ffffff" opacity="1.000000" stroke="none" 
	d="
M921.301392,280.000061 
	C921.299500,298.972565 921.153015,317.446930 921.392456,335.916321 
	C921.455627,340.787689 920.272156,342.994965 915.019531,342.510559 
	C910.564026,342.099670 906.033813,342.271240 901.549744,342.474365 
	C898.360535,342.618805 897.040955,341.528259 897.044983,338.242645 
	C897.091125,300.299469 897.081238,262.356140 897.011475,224.412994 
	C897.004517,220.648468 898.384705,218.904892 902.291443,219.066360 
	C906.610779,219.244873 910.951050,219.261505 915.268188,219.055618 
	C919.672363,218.845581 921.444092,220.391281 921.386719,225.082062 
	C921.164917,243.219025 921.299377,261.360352 921.301392,280.000061 
z"/>
<path fill="#ffffff" opacity="1.000000" stroke="none" 
	d="
M918.390198,170.381592 
	C924.809631,175.915268 926.685181,182.507385 924.041748,189.356201 
	C921.554993,195.798996 915.469604,199.642899 908.270264,199.318344 
	C901.803406,199.026779 896.128784,194.714294 894.334167,188.286301 
	C892.536743,181.847961 893.708740,175.884338 899.009644,171.507004 
	C904.900146,166.642822 911.422180,166.396133 918.390198,170.381592 
z"/>
<path fill="#ffffff" opacity="1.000000" stroke="none" 
	d="
M651.174988,305.176392 
	C649.545410,305.885406 648.330200,306.846680 646.711975,306.472076 
	C646.327759,303.865051 647.919861,302.176941 648.801270,300.295319 
	C651.341980,294.871582 654.573547,289.705444 656.528198,284.088226 
	C659.764038,274.789032 665.731384,268.829163 674.833923,265.237152 
	C682.336914,262.276337 689.114624,257.608856 696.899048,254.738388 
	C697.147827,255.664658 697.510864,256.232941 697.357971,256.560516 
	C692.508545,266.953644 687.627441,277.332092 682.701599,287.689240 
	C681.714722,289.764313 679.718079,290.720490 677.766235,291.705322 
	C669.002197,296.127441 660.254822,300.582458 651.174988,305.176392 
M676.591003,281.277161 
	C676.467712,277.768433 674.541809,275.921204 671.186096,276.631500 
	C668.248718,277.253235 667.603821,279.744446 668.332031,282.497864 
	C668.755066,284.097229 669.968628,285.050079 671.519958,285.229858 
	C673.976135,285.514496 675.535522,284.153320 676.591003,281.277161 
z"/>
</svg>